<svg xmlns="http://www.w3.org/2000/svg" width="109" height="36"><defs><clipPath id="a"><path fill="#fff" d="M90.615 1.03l.707-.708 16.97 16.971L109 18l-.707.707-16.97 16.97-.708-.706L107.585 18z"/></clipPath><clipPath id="b"><path fill="#fff" d="M83.615 1.03l.707-.708 16.97 16.971L102 18l-.707.707-16.97 16.97-.708-.706L100.585 18z"/></clipPath><clipPath id="c"><path fill="#fff" d="M0 18v-1h108v1z"/></clipPath></defs><path fill="none" stroke="#bb9c66" stroke-miterlimit="20" stroke-width="2" d="M90.615 1.03l.707-.708 16.97 16.971h0L109 18l-.707.707h0l-16.97 16.97-.708-.706L107.585 18z" clip-path="url(&quot;#a&quot;)"/><path fill="none" stroke="#bb9c66" stroke-miterlimit="20" stroke-width="2" d="M83.615 1.03l.707-.708 16.97 16.971h0L102 18l-.707.707h0l-16.97 16.97-.708-.706L100.585 18z" clip-path="url(&quot;#b&quot;)"/><path fill="none" stroke="#bb9c66" stroke-miterlimit="20" stroke-width="6" d="M0 18v0-1 0h108v1z" clip-path="url(&quot;#c&quot;)"/></svg>